<svg width="28" height="28" viewBox="0 0 28 28" fill="none" xmlns="http://www.w3.org/2000/svg">
<g id="vuesax/bold/info-circle">
<g id="vuesax/bold/info-circle_2">
<g id="info-circle">
<path id="Vector" d="M13.9999 2.3335C7.57159 2.3335 2.33325 7.57183 2.33325 14.0002C2.33325 20.4285 7.57159 25.6668 13.9999 25.6668C20.4283 25.6668 25.6666 20.4285 25.6666 14.0002C25.6666 7.57183 20.4283 2.3335 13.9999 2.3335ZM13.1249 9.3335C13.1249 8.85516 13.5216 8.4585 13.9999 8.4585C14.4783 8.4585 14.8749 8.85516 14.8749 9.3335V15.1668C14.8749 15.6452 14.4783 16.0418 13.9999 16.0418C13.5216 16.0418 13.1249 15.6452 13.1249 15.1668V9.3335ZM15.0733 19.1102C15.0149 19.2618 14.9333 19.3785 14.8283 19.4952C14.7116 19.6002 14.5833 19.6818 14.4433 19.7402C14.3033 19.7985 14.1516 19.8335 13.9999 19.8335C13.8483 19.8335 13.6966 19.7985 13.5566 19.7402C13.4166 19.6818 13.2883 19.6002 13.1716 19.4952C13.0666 19.3785 12.9849 19.2618 12.9266 19.1102C12.8683 18.9702 12.8333 18.8185 12.8333 18.6668C12.8333 18.5152 12.8683 18.3635 12.9266 18.2235C12.9849 18.0835 13.0666 17.9552 13.1716 17.8385C13.2883 17.7335 13.4166 17.6518 13.5566 17.5935C13.8366 17.4768 14.1633 17.4768 14.4433 17.5935C14.5833 17.6518 14.7116 17.7335 14.8283 17.8385C14.9333 17.9552 15.0149 18.0835 15.0733 18.2235C15.1316 18.3635 15.1666 18.5152 15.1666 18.6668C15.1666 18.8185 15.1316 18.9702 15.0733 19.1102Z" fill="#BB0000"/>
</g>
</g>
</g>
</svg>
