<svg width="40" height="40" viewBox="0 0 40 40" fill="none" xmlns="http://www.w3.org/2000/svg">
<g id="pajamas:issue-type-maintenance" clip-path="url(#clip0_234_1565)">
<path id="Vector" fill-rule="evenodd" clip-rule="evenodd" d="M10 0C7.34784 0 4.8043 1.05357 2.92893 2.92893C1.05357 4.8043 0 7.34784 0 10L0 30C0 32.6522 1.05357 35.1957 2.92893 37.0711C4.8043 38.9464 7.34784 40 10 40H30C32.6522 40 35.1957 38.9464 37.0711 37.0711C38.9464 35.1957 40 32.6522 40 30V10C40 7.34784 38.9464 4.8043 37.0711 2.92893C35.1957 1.05357 32.6522 0 30 0L10 0ZM28.2325 8.23C26.8326 7.56021 25.2594 7.34116 23.7298 7.60304C22.2002 7.86492 20.7895 8.59484 19.6922 9.69218C18.5948 10.7895 17.8649 12.2002 17.603 13.7298C17.3412 15.2594 17.5602 16.8326 18.23 18.2325L8.23 28.2325C7.76123 28.7016 7.49801 29.3377 7.49824 30.0009C7.49848 30.6641 7.76215 31.3 8.23125 31.7688C8.70035 32.2375 9.33646 32.5007 9.99963 32.5005C10.6628 32.5003 11.2987 32.2366 11.7675 31.7675L21.7675 21.7675C23.1674 22.4373 24.7406 22.6563 26.2702 22.3945C27.7998 22.1326 29.2105 21.4027 30.3078 20.3053C31.4052 19.208 32.1351 17.7973 32.397 16.2677C32.6588 14.7381 32.4398 13.1649 31.77 11.765L26.77 16.7675C26.3012 17.2366 25.6653 17.5003 25.0021 17.5005C24.339 17.5007 23.7029 17.2375 23.2337 16.7687C22.7646 16.3 22.501 15.6641 22.5007 15.0009C22.5005 14.3377 22.7637 13.7016 23.2325 13.2325L28.2325 8.23Z" fill="#470A34"/>
</g>
<defs>
<clipPath id="clip0_234_1565">
<rect width="40" height="40" fill="white"/>
</clipPath>
</defs>
</svg>
